<?xml version="1.0" encoding="UTF-8"?>
<!-- Generator: visioncortex VTracer -->
<svg id="svg" version="1.1" xmlns="http://www.w3.org/2000/svg" style="display: block;" viewBox="0 0 1678 1323"><path d="M0 0 C16.479375 -0.0825 32.95875 -0.165 49.9375 -0.25 C55.10784912 -0.28641602 60.27819824 -0.32283203 65.60522461 -0.36035156 C72.00305176 -0.37841797 72.00305176 -0.37841797 75.01441956 -0.3817749 C77.08204103 -0.38784829 79.1496499 -0.40177027 81.21717834 -0.42230225 C101.11073369 -0.60968652 121.91266663 0.54492288 137.25 15.01953125 C145.54090556 24.40231947 147.5313962 33.96100143 147.30078125 46.18359375 C146.32742589 58.53382994 140.88015649 65.98135876 131.75390625 73.96484375 C115.87118921 86.2049815 93.4360186 89.23675396 74 89.0625 C73.03449219 89.05798828 72.06898438 89.05347656 71.07421875 89.04882812 C68.71607911 89.03715417 66.35807398 89.02078021 64 89 C65.91720002 101.61315803 68.60056953 111.29190222 79.265625 119.33203125 C88.03574641 124.68180531 97.01499882 127.72526466 106.875 130.5 C141.33792612 140.25170614 141.33792612 140.25170614 150.37109375 155.28125 C153.55401023 161.25039901 157.84965627 169.41185617 156.5703125 176.3203125 C156.38210938 176.87460937 156.19390625 177.42890625 156 178 C155.525625 177.2575 155.05125 176.515 154.5625 175.75 C147.26788298 167.92163051 135.27958293 167.13399566 125.2578125 165.32421875 C105.76696478 161.69754334 88.72498646 154.35522028 74 141 C73.36835937 140.46117187 72.73671875 139.92234375 72.0859375 139.3671875 C60.27852882 128.63808099 51.71142233 111.0279905 50.84301758 95.12524414 C50.80431175 92.06008746 50.82472327 89.0024467 50.875 85.9375 C50.88402344 84.88111328 50.89304687 83.82472656 50.90234375 82.73632812 C50.9256833 80.15730747 50.95842225 77.5787801 51 75 C52.18964355 74.98541748 53.37928711 74.97083496 54.60498047 74.95581055 C59.05953583 74.8974143 63.51360734 74.82018712 67.96777344 74.73754883 C69.88794037 74.70449254 71.80819997 74.67640188 73.72851562 74.65356445 C76.50430439 74.61966059 79.27925852 74.56733091 82.0546875 74.51171875 C82.8998996 74.50532883 83.74511169 74.4989389 84.61593628 74.49235535 C94.47523695 74.25438726 103.49697786 71.5688514 111 65 C116.74790009 58.22869331 118.4745365 50.43598157 118.24609375 41.71484375 C117.56532489 34.20477462 116.22829452 26.93977743 110.80859375 21.3984375 C89.10143471 4.6140683 28.74933558 14.09245665 22 14 C22 68.12 22 122.24 22 178 C14.74 178 7.48 178 0 178 C0 119.26 0 60.52 0 0 Z " transform="translate(903,414)" style="fill: #FFFFFF;"/><path d="M0 0 C45.54 0 91.08 0 138 0 C138 4.62 138 9.24 138 14 C99.72 14 61.44 14 22 14 C22 36.44 22 58.88 22 82 C60.28 82 98.56 82 138 82 C138 86.62 138 91.24 138 96 C99.72 96 61.44 96 22 96 C22 118.11 22 140.22 22 163 C60.28 163 98.56 163 138 163 C138 167.95 138 172.9 138 178 C92.46 178 46.92 178 0 178 C0 119.26 0 60.52 0 0 Z " transform="translate(578,414)" style="fill: #FFFFFF;"/><path d="M0 0 C45.21 0 90.42 0 137 0 C137 4.62 137 9.24 137 14 C98.72 14 60.44 14 21 14 C21 36.44 21 58.88 21 82 C59.28 82 97.56 82 137 82 C137 86.62 137 91.24 137 96 C98.72 96 60.44 96 21 96 C21 123.06 21 150.12 21 178 C14.07 178 7.14 178 0 178 C0 119.26 0 60.52 0 0 Z " transform="translate(248,414)" style="fill: #FFFFFF;"/><path d="M0 0 C7.26 0 14.52 0 22 0 C22.00364563 1.53714157 22.00729126 3.07428314 22.01104736 4.65800476 C22.04806743 19.17893095 22.10568254 33.69961256 22.18390274 48.22037029 C22.22359034 55.68475864 22.2560347 63.14904314 22.27099609 70.61352539 C22.28406628 77.12504659 22.31116628 83.63633829 22.35461307 90.14773017 C22.37710842 93.59056035 22.39291794 97.03310873 22.39188385 100.47601891 C22.39426501 104.33421114 22.42143975 108.19152151 22.45410156 112.04956055 C22.4490712 113.17166428 22.44404083 114.29376801 22.43885803 115.44987488 C22.62769097 129.96766271 27.7724598 143.5400157 38 154 C50.78059499 164.23797662 63.63436546 168.33227779 80 167 C93.64859076 164.21610883 105.84879672 157.56321358 114.08203125 146.1015625 C121.55339765 133.86425079 123.13155635 122.24859011 123.20532227 108.18969727 C123.21522186 107.01824661 123.22512146 105.84679596 123.23532104 104.6398468 C123.26681523 100.78205358 123.29164566 96.92424807 123.31640625 93.06640625 C123.33698621 90.38597708 123.3579366 87.70555337 123.37937927 85.02513123 C123.42916752 78.70009669 123.47415741 72.3750376 123.51740164 66.04995531 C123.56689302 58.84554798 123.62176677 51.64118475 123.67708123 44.43682015 C123.7906882 29.62458844 123.89738215 14.81231198 124 0 C128.62 0 133.24 0 138 0 C138.06974272 14.86542628 138.12313424 29.7308275 138.15543652 44.59638309 C138.17084031 51.50026619 138.19180399 58.40404513 138.22631836 65.30786133 C138.25965747 71.97983149 138.27689147 78.65167154 138.28463173 85.32372856 C138.29014251 87.85961031 138.30090302 90.39548667 138.31719017 92.9313221 C138.52150091 126.08276039 138.52150091 126.08276039 131.25 139.375 C130.90074463 140.04072021 130.55148926 140.70644043 130.19165039 141.39233398 C127.32456593 146.71562121 124.06231194 151.50811025 120 156 C119.47019531 156.60972656 118.94039062 157.21945312 118.39453125 157.84765625 C106.46568888 170.73987307 89.24420254 176.5677317 72.1640625 178.28515625 C52.74960048 178.95562566 34.32286293 171.54797427 20.203125 158.39453125 C4.6537169 142.06765274 -0.190449 123.52037435 -0.11352539 101.60522461 C-0.11374443 99.95002304 -0.11374443 99.95002304 -0.1139679 98.26138306 C-0.11327546 94.64168276 -0.10551457 91.02203497 -0.09765625 87.40234375 C-0.09578969 84.88171924 -0.09436691 82.36109436 -0.09336853 79.84046936 C-0.08995041 73.90150298 -0.08208209 67.96255324 -0.07201904 62.02359539 C-0.06080466 55.25689167 -0.05533409 48.49018701 -0.05032361 41.72347629 C-0.03989789 27.81563869 -0.02157384 13.90782455 0 0 Z " transform="translate(743,414)" style="fill: #FFFFFF;"/><path d="M0 0 C0.83966309 0.33894287 1.67932617 0.67788574 2.54443359 1.02709961 C5.8592522 2.70210038 7.72917311 4.03335204 10 7 C11.69988166 13.42694302 10.93437142 20.37007008 10.625 26.9375 C10.5747997 28.78438523 10.52917919 30.63140099 10.48828125 32.47851562 C10.37846251 36.9889132 10.20617471 41.49302078 10 46 C9.34 45.67 8.68 45.34 8 45 C7.17816999 42.52557704 6.44704176 40.07179383 5.75 37.5625 C1.51474591 23.3034429 -6.28718665 12.20674775 -19.203125 4.5 C-30.15206624 -1.37205787 -40.52880111 -3.35152086 -52.875 -3.3125 C-53.88691406 -3.32861328 -54.89882812 -3.34472656 -55.94140625 -3.36132812 C-67.37588565 -3.36864853 -77.05877155 -0.35844577 -86.6875 5.6875 C-92.96978778 11.96978778 -96.28049517 20.56300246 -96.3125 29.375 C-96.09164889 39.12557671 -93.50550547 44.3896652 -86.765625 51.48828125 C-70.63259309 66.14017323 -48.11885926 73.9862402 -27.8125 80.7421875 C-7.39562397 87.55042286 14.2518707 96.99259031 24.875 117 C30.21876137 128.64112326 30.22293542 139.96394629 26 152 C23.5880855 157.46014767 20.81158564 162.73745965 18 168 C17.34 168 16.68 168 16 168 C16.03480469 167.44054687 16.06960938 166.88109375 16.10546875 166.3046875 C16.65704955 149.96738954 11.06408589 135.81964287 0.46484375 123.52734375 C-12.21325708 110.52776968 -29.07053638 104.24877499 -46 99 C-101.91844771 81.4677181 -101.91844771 81.4677181 -114.5 58 C-119.36324682 47.27383897 -118.45415628 36.94497285 -114.99609375 25.75 C-110.14499736 13.19798823 -101.8320823 3.5995207 -89.6875 -2.25 C-63.27995398 -13.58474578 -25.66368347 -14.14879391 0 0 Z " transform="translate(1401,424)" style="fill: #FFFFFF;"/><path d="M0 0 C7.26 0 14.52 0 22 0 C22 53.79 22 107.58 22 163 C60.28 163 98.56 163 138 163 C138 167.95 138 172.9 138 178 C92.46 178 46.92 178 0 178 C0 119.26 0 60.52 0 0 Z " transform="translate(1078,414)" style="fill: #FFFFFF;"/><path d="M0 0 C6.93 0 13.86 0 21 0 C21 53.79 21 107.58 21 163 C59.28 163 97.56 163 137 163 C137 167.95 137 172.9 137 178 C91.79 178 46.58 178 0 178 C0 119.26 0 60.52 0 0 Z " transform="translate(413,414)" style="fill: #FFFFFF;"/><path d="M0 0 C6.93 0 13.86 0 21 0 C21 58.74 21 117.48 21 178 C14.07 178 7.14 178 0 178 C0 119.26 0 60.52 0 0 Z " transform="translate(1239,414)" style="fill: #FFFFFF;"/><path d="M0 0 C3.3 0 6.6 0 10 0 C10 0.99 10 1.98 10 3 C17.92 3 25.84 3 34 3 C34 2.01 34 1.02 34 0 C37.3 0 40.6 0 44 0 C44.07007683 18.29774005 44.12298166 36.59544528 44.15543652 54.89329052 C44.17090631 63.38927381 44.19199797 71.88517373 44.22631836 80.38110352 C44.25621729 87.78603986 44.27557418 95.19091582 44.28226548 102.59591085 C44.28617692 106.5169248 44.29537159 110.437766 44.31719017 114.35872459 C44.33756319 118.04983339 44.3438322 121.74069838 44.33932304 125.43185806 C44.34054097 127.43122212 44.35667885 129.43055968 44.3732605 131.42985535 C44.36707451 133.21975891 44.36707451 133.21975891 44.36076355 135.04582214 C44.36352893 136.08099566 44.36629431 137.11616919 44.36914349 138.1827116 C43.93609486 141.48772149 42.97214552 143.33146982 41 146 C38 148 38 148 34 148 C34 101.8 34 55.6 34 8 C26.08 8 18.16 8 10 8 C10.00888245 9.66765915 10.01776489 11.3353183 10.0269165 13.05351257 C10.10793189 28.75405381 10.1681719 44.45453026 10.20724869 60.15523052 C10.22787347 68.22751447 10.25599232 76.29964238 10.30175781 84.37182617 C10.34162833 91.40759902 10.36743343 98.44325885 10.37635398 105.47914153 C10.38156843 109.20460202 10.39382205 112.9297392 10.42292023 116.65509605 C10.45514181 120.81407383 10.45595928 124.97248962 10.45410156 129.1315918 C10.46848267 130.36661438 10.48286377 131.60163696 10.49768066 132.87408447 C10.49218201 134.00845444 10.48668335 135.1428244 10.48101807 136.31156921 C10.48470524 137.29512233 10.48839241 138.27867544 10.49219131 139.2920332 C9.83869654 142.88746877 8.65204958 144.50398259 6 147 C4.02 147.33 2.04 147.66 0 148 C0 99.16 0 50.32 0 0 Z " transform="translate(862,739)" style="fill: #FFFFFF;"/><path d="M0 0 C3.3 0 6.6 0 10 0 C10 0.99 10 1.98 10 3 C17.92 3 25.84 3 34 3 C34 2.01 34 1.02 34 0 C37.3 0 40.6 0 44 0 C44.04671847 18.1673692 44.0819881 36.33472281 44.10362434 54.50213909 C44.11393739 62.93756302 44.12799829 71.37294963 44.15087891 79.80834961 C44.17081188 87.16054793 44.18371623 94.51271921 44.18817699 101.8649438 C44.19078452 105.75797008 44.19691398 109.65091902 44.21146011 113.54392052 C44.22504256 117.20872897 44.2292213 120.87342828 44.22621536 124.53825951 C44.22702726 126.52329271 44.23778544 128.50831406 44.24884033 130.49331665 C44.246091 131.67817154 44.24334167 132.86302643 44.24050903 134.08378601 C44.24235262 135.11158519 44.24419621 136.13938437 44.24609566 137.19832897 C43.89656871 141.1775114 43.01798526 144.01594758 40.125 146.8125 C38 148 38 148 34 148 C34 101.8 34 55.6 34 8 C26.08 8 18.16 8 10 8 C10.00888245 9.66765915 10.01776489 11.3353183 10.0269165 13.05351257 C10.10793189 28.75405381 10.1681719 44.45453026 10.20724869 60.15523052 C10.22787347 68.22751447 10.25599232 76.29964238 10.30175781 84.37182617 C10.34162833 91.40759902 10.36743343 98.44325885 10.37635398 105.47914153 C10.38156843 109.20460202 10.39382205 112.9297392 10.42292023 116.65509605 C10.45514181 120.81407383 10.45595928 124.97248962 10.45410156 129.1315918 C10.46848267 130.36661438 10.48286377 131.60163696 10.49768066 132.87408447 C10.49218201 134.00845444 10.48668335 135.1428244 10.48101807 136.31156921 C10.48470524 137.29512233 10.48839241 138.27867544 10.49219131 139.2920332 C9.83869654 142.88746877 8.65204958 144.50398259 6 147 C4.02 147.33 2.04 147.66 0 148 C0 99.16 0 50.32 0 0 Z " transform="translate(915,739)" style="fill: #FFFFFF;"/><path d="M0 0 C5 1 5 1 10 4 C10 10.27 10 16.54 10 23 C25.51 23 41.02 23 57 23 C55 27 55 27 53 28 C51.61090696 28.08918777 50.21763093 28.11759541 48.82568359 28.11352539 C47.53457169 28.11341209 47.53457169 28.11341209 46.21737671 28.11329651 C44.8220018 28.10555458 44.8220018 28.10555458 43.3984375 28.09765625 C42.44683746 28.0962413 41.49523743 28.09482635 40.51480103 28.09336853 C37.46816903 28.08776012 34.42160987 28.07520619 31.375 28.0625 C29.31250106 28.05748608 27.25000097 28.05292299 25.1875 28.04882812 C20.12497183 28.03778796 15.06249827 28.02051767 10 28 C10.00507568 29.05856201 10.01015137 30.11712402 10.01538086 31.20776367 C10.03924929 38.2584572 10.06237799 45.275756 9.5625 52.3125 C9.48128906 53.52550781 9.40007813 54.73851562 9.31640625 55.98828125 C9 59 9 59 8 62 C24.17 62 40.34 62 57 62 C56.34 63.65 55.68 65.3 55 67 C41.47 67.33 27.94 67.66 14 68 C18.58527607 82.43063892 18.58527607 82.43063892 24.8125 95.875 C25.23845459 96.66253662 25.66440918 97.45007324 26.10327148 98.26147461 C33.33745383 111.33550791 42.94446855 123.20058268 54.56640625 132.625 C55.03949219 133.07875 55.51257813 133.5325 56 134 C56 134.66 56 135.32 56 136 C43.67011978 134.18083734 33.62231066 126.72124947 26 117 C17.27851322 104.77278756 10.58195074 91.29393245 6 77 C5.70867188 77.70382812 5.41734375 78.40765625 5.1171875 79.1328125 C4.24063641 81.24425317 3.35860257 83.35342175 2.47265625 85.4609375 C1.52069637 87.74867131 0.58947486 90.04519457 -0.31640625 92.3515625 C-8.04037578 111.49644423 -18.25946203 126.6450595 -37.640625 135.16015625 C-40 136 -40 136 -43 136 C-41.892663 132.677989 -41.21551324 132.16035554 -38.5625 130.0625 C-19.89056811 114.0865155 -9.33768839 91.23819075 -3 68 C-22.8 67.505 -22.8 67.505 -43 67 C-43.66 65.35 -44.32 63.7 -45 62 C-30.48 62 -15.96 62 -1 62 C-0.67 50.78 -0.34 39.56 0 28 C-2.91328125 28.04640625 -5.8265625 28.0928125 -8.828125 28.140625 C-11.65118671 28.1718242 -14.47422917 28.19610991 -17.29736328 28.21972656 C-19.25871381 28.23983632 -21.22000444 28.26712818 -23.18115234 28.30175781 C-26.00112695 28.35030421 -28.82030865 28.37297486 -31.640625 28.390625 C-32.95489471 28.42159271 -32.95489471 28.42159271 -34.29571533 28.45318604 C-40.39993394 28.45543359 -40.39993394 28.45543359 -43.58496094 26.03808594 C-45 24 -45 24 -45 23 C-30.15 23 -15.3 23 0 23 C0 15.41 0 7.82 0 0 Z " transform="translate(617,751)" style="fill: #FFFFFF;"/><path d="M0 0 C14.85 0 29.7 0 45 0 C43.87373339 7.8838663 43.87373339 7.8838663 42.43359375 11.64453125 C41.95684204 12.89339111 41.95684204 12.89339111 41.47045898 14.16748047 C41.12958252 15.04033691 40.78870605 15.91319336 40.4375 16.8125 C40.09340088 17.7317627 39.74930176 18.65102539 39.39477539 19.59814453 C37.64207091 24.19004839 35.77709797 28.55603817 33.375 32.84765625 C29.09209138 40.00523242 29.09209138 40.00523242 28.37841797 48.00683594 C30.05464552 52.23917831 32.69611836 55.70403614 35.55810547 59.20751953 C36.96895127 60.961402 38.24422166 62.75647872 39.50390625 64.62109375 C44.2934997 71.6806549 49.57096235 78.23550745 55.1640625 84.671875 C57 87 57 87 57 89 C52.99445848 90.13542909 49.99644438 90.24279673 46 89 C40.94952568 84.69672358 37.54221257 78.5304442 34 73 C32.93394665 71.38302226 31.86623829 69.76713442 30.796875 68.15234375 C28.15120254 64.13010525 25.56244936 60.07570686 23 56 C20.22199746 59.37765948 17.74617072 62.82720791 15.375 66.5 C12.30176281 71.15310021 9.08811558 75.64332444 5.6875 80.0625 C5.05690674 80.88427734 5.05690674 80.88427734 4.41357422 81.72265625 C3.29417585 83.16297582 2.14822986 84.58255817 1 86 C0.525625 86.61359375 0.05125 87.2271875 -0.4375 87.859375 C-2.81039415 89.59158773 -4.80297735 89.28930668 -7.6875 89.1875 C-8.68136719 89.16042969 -9.67523437 89.13335938 -10.69921875 89.10546875 C-11.45847656 89.07066406 -12.21773437 89.03585937 -13 89 C-9.89140441 84.78455598 -6.72007655 80.65588722 -3.375 76.625 C0.43830621 71.88413282 3.86403563 66.92457062 7.25 61.875 C7.75740723 61.12299316 8.26481445 60.37098633 8.78759766 59.59619141 C10.23066374 57.41991236 11.61658766 55.21451655 13 53 C13.45971191 52.34185303 13.91942383 51.68370605 14.39306641 51.00561523 C16.24921579 48.0414772 17.25531246 46.17859356 16.49609375 42.67382812 C15.43955378 40.11058816 14.22140091 37.73563914 12.875 35.3125 C12.01757018 33.66310282 11.16077993 32.01337298 10.3046875 30.36328125 C9.91265137 29.64438721 9.52061523 28.92549316 9.11669922 28.18481445 C7.9285892 25.86028525 6.96953892 23.42384729 6 21 C3.03 27.6 0.06 34.2 -3 41 C-6.3 41 -9.6 41 -13 41 C-12.40832031 39.71867188 -11.81664062 38.43734375 -11.20703125 37.1171875 C-1.9838194 19.22941939 -1.9838194 19.22941939 0 0 Z M11 5 C9.74489357 6.9520708 9.74489357 6.9520708 10.55737305 9.01196289 C10.87230713 9.8239917 11.18724121 10.63602051 11.51171875 11.47265625 C11.85783203 12.37306641 12.20394531 13.27347656 12.56054688 14.20117188 C12.93244141 15.14541016 13.30433594 16.08964844 13.6875 17.0625 C14.04005859 17.97966797 14.39261719 18.89683594 14.75585938 19.84179688 C17.00360436 25.63991054 19.41713041 31.34348944 22 37 C24.05981992 34.94018008 24.73668089 33.58158282 25.83984375 30.9296875 C26.18080078 30.115 26.52175781 29.3003125 26.87304688 28.4609375 C27.22431641 27.60757813 27.57558594 26.75421875 27.9375 25.875 C28.28490234 25.04484375 28.63230469 24.2146875 28.99023438 23.359375 C33.18667789 14.43814731 33.18667789 14.43814731 35 5 C27.08 5 19.16 5 11 5 Z " transform="translate(760,709)" style="fill: #FFFFFF;"/><path d="M0 0 C3.3 0 6.6 0 10 0 C10 0.99 10 1.98 10 3 C19.57 3 29.14 3 39 3 C39 2.01 39 1.02 39 0 C42.3 0 45.6 0 49 0 C49.04635898 9.82279553 49.08188735 19.645565 49.10362434 29.46844769 C49.11405748 34.02970433 49.12820815 38.59088607 49.15087891 43.15209961 C49.17262398 47.55466764 49.18457217 51.95716367 49.18975449 56.35978127 C49.19344725 58.03868557 49.20065828 59.71758597 49.21146011 61.39645958 C49.22599718 63.74966293 49.22797702 66.10256945 49.22705078 68.45581055 C49.23424133 69.1484903 49.24143188 69.84117004 49.24884033 70.55484009 C49.23216086 74.47607367 48.80252864 77.49989864 47 81 C44.04951123 83.85213914 43.28899863 84 39 84 C39 81.36 39 78.72 39 76 C29.43 76 19.86 76 10 76 C9.34 77.65 8.68 79.3 8 81 C5.04951123 83.85213914 4.28899863 84 0 84 C0 56.28 0 28.56 0 0 Z M10 8 C10 28.46 10 48.92 10 70 C19.57 70 29.14 70 39 70 C39 49.54 39 29.08 39 8 C29.43 8 19.86 8 10 8 Z " transform="translate(758,803)" style="fill: #FFFFFF;"/><path d="M0 0 C2.97 0 5.94 0 9 0 C4.94303453 22.32042755 -0.53823989 43.92308838 -9 65 C-5.37 65 -1.74 65 2 65 C2.24234375 63.98421875 2.4846875 62.9684375 2.734375 61.921875 C4.78220274 53.46685984 7.07849994 45.20506399 10 37 C12.64 37 15.28 37 18 37 C17.37868955 44.71784071 15.1902659 51.91384268 13 59.3125 C12.80158508 59.98863342 12.60317017 60.66476685 12.39874268 61.36138916 C6.55064816 81.26990788 0.22163712 100.93279903 -8 120 C-1.07 120.33 5.86 120.66 13 121 C12.67 122.65 12.34 124.3 12 126 C8.58248347 127.13917218 5.96512063 127.11338481 2.36328125 127.09765625 C0.41518555 127.09282227 0.41518555 127.09282227 -1.57226562 127.08789062 C-2.94401108 127.07953531 -4.31575587 127.07107037 -5.6875 127.0625 C-7.07096195 127.05748335 -8.45442563 127.05292073 -9.83789062 127.04882812 C-13.22530395 127.03702529 -16.61263033 127.02056019 -20 127 C-19.41502964 122.73750808 -18.39630696 119.07915189 -16.77734375 115.09765625 C-16.32464111 113.97004883 -15.87193848 112.84244141 -15.40551758 111.68066406 C-14.92107178 110.48666992 -14.43662598 109.29267578 -13.9375 108.0625 C-8.89953996 95.5033147 -4.32053272 82.82542092 0 70 C-6.6 70 -13.2 70 -20 70 C-19.32716514 65.96299084 -18.87205984 63.26176131 -17.43359375 59.65625 C-17.11672607 58.83688965 -16.7998584 58.0175293 -16.47338867 57.17333984 C-16.13154541 56.2911377 -15.78970215 55.40893555 -15.4375 54.5 C-8.77689598 36.79821659 -4.55379953 18.32920145 0 0 Z " transform="translate(1024,719)" style="fill: #FFFFFF;"/><path d="M0 0 C6 2 6 2 9 4 C9 9.28 9 14.56 9 20 C21.87 20 34.74 20 48 20 C48 14.39 48 8.78 48 3 C54 0 54 0 57 0 C57 6.6 57 13.2 57 20 C64.26 20 71.52 20 79 20 C78.67 21.32 78.34 22.64 78 24 C75.65147472 25.17426264 74.26225935 25.11508173 71.6484375 25.09765625 C70.37226562 25.09282227 70.37226562 25.09282227 69.0703125 25.08789062 C68.18085937 25.07951172 67.29140625 25.07113281 66.375 25.0625 C65.4778125 25.05798828 64.580625 25.05347656 63.65625 25.04882812 C61.43747169 25.03702611 59.21872757 25.01909039 57 25 C57 30.61 57 36.22 57 42 C52 42 52 42 48 38 C48 33.71 48 29.42 48 25 C35.13 25 22.26 25 9 25 C9 28.3 9 31.6 9 35 C7.9218403 38.98089736 7.49823043 39.66784638 4 42 C2.68 42 1.36 42 0 42 C0 36.39 0 30.78 0 25 C-2.11341797 25.05220703 -2.11341797 25.05220703 -4.26953125 25.10546875 C-6.11717559 25.13360547 -7.96483281 25.16090575 -9.8125 25.1875 C-10.74126953 25.21263672 -11.67003906 25.23777344 -12.62695312 25.26367188 C-13.9659668 25.27817383 -13.9659668 25.27817383 -15.33203125 25.29296875 C-16.15421143 25.3086792 -16.9763916 25.32438965 -17.82348633 25.34057617 C-20.50456255 24.92104714 -21.3869427 24.14498486 -23 22 C-23 21.34 -23 20.68 -23 20 C-15.41 20 -7.82 20 0 20 C0 13.4 0 6.8 0 0 Z " transform="translate(595,709)" style="fill: #FFFFFF;"/><path d="M0 0 C2.97 0 5.94 0 9 0 C9.09261894 15.29887434 9.16399018 30.59771619 9.20724869 45.89680767 C9.22786882 53.00055679 9.25597862 60.10412846 9.30175781 67.20776367 C9.34590377 74.06123858 9.36912796 80.91452886 9.37950897 87.76813698 C9.38690836 90.38486447 9.40135732 93.00158171 9.42292023 95.61823082 C9.45189294 99.27915765 9.4559584 102.93931904 9.45410156 106.6003418 C9.47567322 108.22845795 9.47567322 108.22845795 9.49768066 109.88946533 C9.47329175 114.32375854 9.43051577 117.20966827 7.28411865 121.14997864 C5 123 5 123 0 124 C0 83.08 0 42.16 0 0 Z " transform="translate(1071,709)" style="fill: #FFFFFF;"/><path d="M0 0 C2.64 0 5.28 0 8 0 C9.03330922 32.60664655 5.85600607 67.33791493 -2 99 C-4.97 99 -7.94 99 -11 99 C-10.44616387 93.42207895 -9.67493209 87.96525351 -8.64208984 82.45727539 C-4.63616724 60.99967766 -2.8457626 39.34059783 -1.64599609 17.57055664 C-1.57461426 16.29301514 -1.50323242 15.01547363 -1.4296875 13.69921875 C-1.37022949 12.57346436 -1.31077148 11.44770996 -1.24951172 10.2878418 C-0.98688419 6.82717155 -0.52662581 3.42958943 0 0 Z " transform="translate(1054,726)" style="fill: #FFFFFF;"/><path d="M0 0 C2.55341394 -0.01785604 4.80438351 0.17971628 7.29296875 0.73046875 C1.44786398 15.00256507 -9.2006923 27.62079548 -19.70703125 38.73046875 C-20.8585243 40.0589173 -22.00455673 41.39212279 -23.14453125 42.73046875 C-31.78140599 52.53878168 -40.52330216 61.59148563 -53.70703125 64.73046875 C-56.58203125 64.85546875 -56.58203125 64.85546875 -58.70703125 64.73046875 C-55.08623673 60.29499547 -51.38647844 56.45004407 -47.0390625 52.734375 C-35.89499702 43.15831874 -26.12608703 33.00766682 -17.14453125 21.35546875 C-16.58217773 20.62706787 -16.01982422 19.89866699 -15.44042969 19.14819336 C-12.92805715 15.84397351 -10.53377281 12.56138172 -8.44921875 8.96875 C-3.806426 1.02713083 -3.806426 1.02713083 0 0 Z " transform="translate(1097.70703125,822.26953125)" style="fill: #FFFFFF;"/><path d="M0 0 C2.97 0 5.94 0 9 0 C2.20851064 62.79148936 2.20851064 62.79148936 -8 73 C-11.33327842 73.1424478 -14.66453893 73.04222103 -18 73 C-16.5520957 67.5593899 -15.06825619 62.13921162 -13.38671875 56.765625 C-9.35785896 43.77222831 -6.38606666 30.78726726 -3.95385742 17.42089844 C-3.72545166 16.16696289 -3.4970459 14.91302734 -3.26171875 13.62109375 C-3.06537842 12.5117749 -2.86903809 11.40245605 -2.66674805 10.25952148 C-1.95178956 6.76431433 -1.0199412 3.417195 0 0 Z " transform="translate(734,814)" style="fill: #FFFFFF;"/><path d="M0 0 C2.97 0 5.94 0 9 0 C11.32402357 9.23971897 12.8980544 18.42310699 14.0625 27.875 C14.14649048 28.54342926 14.23048096 29.21185852 14.3170166 29.90054321 C18.58508915 63.88519699 18.58508915 63.88519699 18 79 C15.03 79 12.06 79 9 79 C8.93006836 77.99549805 8.86013672 76.99099609 8.78808594 75.95605469 C6.57860116 40.66868516 6.57860116 40.66868516 0.36938477 5.9309082 C0 4 0 4 0 0 Z " transform="translate(1086,726)" style="fill: #FFFFFF;"/><path d="M0 0 C2.97 0 5.94 0 9 0 C10.69850545 3.3970109 10.47546656 7.27426185 10.71875 11.01953125 C10.78132492 11.93827026 10.84389984 12.85700928 10.90837097 13.80358887 C11.11071998 16.80624203 11.30583383 19.80930733 11.5 22.8125 C11.56692047 23.82621674 11.63384094 24.83993347 11.70278931 25.8843689 C12.80224033 42.58400875 13.62043262 59.26757939 14 76 C11.03 76 8.06 76 5 76 C4.91959473 74.55044922 4.83918945 73.10089844 4.75634766 71.60742188 C4.4502578 66.10527982 4.13977548 60.60339215 3.828125 55.1015625 C3.69513539 52.74355437 3.56325652 50.38548326 3.43261719 48.02734375 C2.54330551 31.99237017 1.42060693 15.99687285 0 0 Z " transform="translate(877,776)" style="fill: #FFFFFF;"/><path d="M0 0 C2.97 0 5.94 0 9 0 C12.81847262 25.06380434 13.29955271 50.68993512 14 76 C11.03 76 8.06 76 5 76 C4.87939209 73.87896851 4.87939209 73.87896851 4.75634766 71.71508789 C4.44980819 66.33780518 4.13946674 60.96074685 3.828125 55.58374023 C3.69529359 53.28106307 3.56341811 50.97833051 3.43261719 48.67553711 C2.50896602 32.429934 1.37160773 16.21406918 0 0 Z " transform="translate(930,776)" style="fill: #FFFFFF;"/><path d="M0 0 C33.33 0 66.66 0 101 0 C100.67 1.65 100.34 3.3 100 5 C96.62845072 6.68577464 92.80831092 6.14718128 89.09985352 6.14526367 C87.71675995 6.15030159 87.71675995 6.15030159 86.3057251 6.15544128 C83.24677191 6.16496821 80.18787336 6.16689524 77.12890625 6.16796875 C75.00902788 6.17117999 72.88914974 6.17454396 70.76927185 6.17805481 C66.32135504 6.18405035 61.87345768 6.18589426 57.42553711 6.18530273 C51.717692 6.18520106 46.00997114 6.19885695 40.30215549 6.21607494 C35.92277958 6.22717676 31.54343388 6.22922251 27.16404533 6.22869301 C25.05924997 6.22987573 22.95445389 6.23431378 20.84967232 6.24202538 C17.90953923 6.25178909 14.9696782 6.24896161 12.02954102 6.24291992 C10.71795265 6.25134918 10.71795265 6.25134918 9.37986755 6.25994873 C3.34247532 6.22831688 3.34247532 6.22831688 0 4 C0 2.68 0 1.36 0 0 Z " transform="translate(860,713)" style="fill: #FFFFFF;"/><path d="M0 0 C2.16117054 3.24175581 3.12851031 6.38741557 4.25 10.0625 C6.96306271 18.51317289 10.34413016 25.5253083 16.875 31.6875 C20.40531845 35.43506881 20.53552669 39.05311204 20.4375 44 C20.34642358 46.34342377 20.19182471 48.66156542 20 51 C16.44346907 50.42495458 13.69881715 49.51662428 10.5625 47.75 C9.84191406 47.35296875 9.12132812 46.9559375 8.37890625 46.546875 C7.20134766 45.78117188 7.20134766 45.78117188 6 45 C4.97302002 44.33363525 3.94604004 43.66727051 2.88793945 42.98071289 C0.97965207 41.36455555 0.1167427 40.44161385 -0.52702332 38.00637817 C-0.69419351 35.5704696 -0.67492459 33.20177367 -0.5859375 30.76171875 C-0.57744781 29.88095169 -0.56895813 29.00018463 -0.56021118 28.09272766 C-0.52672156 25.28972125 -0.45145454 22.48963115 -0.375 19.6875 C-0.34489448 17.78324478 -0.31751969 15.8789443 -0.29296875 13.97460938 C-0.2269452 9.3152889 -0.12345728 4.65813821 0 0 Z " transform="translate(1288,540)" style="fill: #FFFFFF;"/><path d="M0 0 C3.3 0 6.6 0 10 0 C13.67311663 8.37516281 16.67232053 16.81033011 19.3125 25.5625 C19.67150391 26.72330078 20.03050781 27.88410156 20.40039062 29.08007812 C23 37.60184524 23 37.60184524 23 41 C19.7 41 16.4 41 13 41 C12.74831055 40.1843457 12.49662109 39.36869141 12.23730469 38.52832031 C11.28410596 35.44156402 10.32969296 32.3551863 9.37451172 29.26904297 C8.96486096 27.94464431 8.55566558 26.6201047 8.14697266 25.29541016 C5.53427246 16.82820732 2.84460045 8.39255222 0 0 Z " transform="translate(719,709)" style="fill: #FFFFFF;"/><path d="M0 0 C3.3 0 6.6 0 10 0 C15.25441113 13.46248533 19.39950297 27.00685952 23 41 C19.7 41 16.4 41 13 41 C12.60039063 39.79859375 12.20078125 38.5971875 11.7890625 37.359375 C10.45878669 33.36698437 9.11751261 29.37838983 7.7734375 25.390625 C6.97390403 23.01043491 6.17442592 20.63022622 5.375 18.25 C4.76398437 16.44208984 4.76398437 16.44208984 4.140625 14.59765625 C3.75132812 13.43621094 3.36203125 12.27476562 2.9609375 11.078125 C2.60821777 10.03043945 2.25549805 8.98275391 1.89208984 7.90332031 C1.08469823 5.27565173 0.48139266 2.70401934 0 0 Z " transform="translate(721,757)" style="fill: #FFFFFF;"/><path d="M0 0 C0 1.65 0 3.3 0 5 C-4.48286991 6.00228624 -8.96692126 6.99903835 -13.45214844 7.99072266 C-14.97722408 8.32872816 -16.5019682 8.66823313 -18.02636719 9.00927734 C-20.21984413 9.49973536 -22.41446382 9.98475649 -24.609375 10.46875 C-25.2886908 10.62186646 -25.96800659 10.77498291 -26.66790771 10.93273926 C-29.90072174 11.64025097 -32.66450614 12 -36 12 C-36 10.35 -36 8.7 -36 7 C-29.90204041 4.87026655 -23.76278297 3.6276755 -17.4375 2.375 C-16.31408203 2.14554688 -15.19066406 1.91609375 -14.03320312 1.6796875 C-12.40608398 1.35484375 -12.40608398 1.35484375 -10.74609375 1.0234375 C-9.76310303 0.82669434 -8.7801123 0.62995117 -7.76733398 0.42724609 C-5.12564351 0.01939798 -2.66748323 -0.07969901 0 0 Z " transform="translate(1040,864)" style="fill: #FFFFFF;"/></svg>